<svg version="1.1" id="Layer_1" xmlns="http://www.w3.org/2000/svg" xmlns:xlink="http://www.w3.org/1999/xlink" x="0px" y="0px"
	 width="100%" viewBox="0 0 870 348" enable-background="new 0 0 870 348" xml:space="preserve">
<path fill="transparent" opacity="1.000000" stroke="none" 
	d="
M608.000000,349.000000 
	C405.333344,349.000000 203.166672,349.000000 1.000000,349.000000 
	C1.000000,233.000000 1.000000,117.000000 1.000000,1.000000 
	C291.000000,1.000000 581.000000,1.000000 871.000000,1.000000 
	C871.000000,117.000000 871.000000,233.000000 871.000000,349.000000 
	C783.500000,349.000000 696.000000,349.000000 608.000000,349.000000 
M48.889748,193.451614 
	C55.886051,211.409393 69.427605,220.599731 88.279114,221.297623 
	C104.174568,221.886093 116.815971,215.069107 125.633240,202.012039 
	C120.563721,199.574326 115.507675,197.757935 111.112564,194.918518 
	C95.723312,184.976471 92.365433,166.684464 103.034813,152.433151 
	C109.618469,143.639221 118.591820,138.545334 129.128830,136.059586 
	C139.032196,133.723297 148.850113,134.554138 158.376678,137.602509 
	C170.560501,99.506950 195.590042,75.911163 234.949524,70.129066 
	C274.249298,64.355736 305.402710,79.458633 328.769806,111.999863 
	C328.769806,79.621483 328.769806,47.817951 328.769806,16.037609 
	C223.907623,16.037609 119.467384,16.037609 14.796543,16.037609 
	C14.796543,52.474468 14.796543,88.682030 14.796543,125.909660 
	C33.684895,103.354385 57.032852,91.227386 85.484657,90.096901 
	C113.866333,88.969200 137.995285,98.985817 157.597137,119.678688 
	C155.533600,119.706894 153.664444,119.185768 151.792160,118.676041 
	C121.175339,110.340530 92.793861,114.791336 68.249229,135.322495 
	C50.531086,150.143448 42.219273,169.144333 48.889748,193.451614 
M20.748720,240.728561 
	C18.974838,238.786514 17.200954,236.844452 14.904545,234.330322 
	C14.904545,264.056793 14.904545,292.994598 14.904545,322.224426 
	C105.978951,292.803894 198.011383,272.474762 293.995483,276.394867 
	C256.061859,278.501526 218.606949,284.174927 181.543243,292.355804 
	C150.821228,299.136902 81.533142,324.065735 74.845207,330.169067 
	C159.411362,330.169067 244.131683,330.169067 328.861877,330.169067 
	C328.861877,288.727142 328.861877,247.688705 328.861877,205.628601 
	C310.421570,232.564713 285.595184,247.003174 254.057678,248.693298 
	C222.531403,250.382843 196.307205,238.587631 175.499252,214.666306 
	C147.982132,275.529144 67.566986,288.848877 20.748720,240.728561 
M196.843353,153.381378 
	C193.682602,181.929886 214.126053,206.027466 244.543106,209.607117 
	C271.226166,212.747360 298.021759,191.978989 301.054840,165.806839 
	C304.441742,136.581543 284.582275,111.790756 254.942200,108.243874 
	C226.664459,104.860023 200.490845,124.844131 196.843353,153.381378 
M661.657593,45.827396 
	C655.297485,38.565033 648.433350,31.673309 642.734680,23.924496 
	C638.067261,17.577988 632.509644,17.847221 626.190918,18.901281 
	C626.190918,53.354733 626.190918,87.564156 626.190918,121.738983 
	C630.855896,121.738983 635.120239,121.738983 639.936401,121.738983 
	C639.936401,95.790558 639.936401,70.106934 639.936401,43.383381 
	C641.819580,45.357491 642.972961,46.472954 644.021545,47.679607 
	C664.666138,71.437134 685.284607,95.217468 705.972229,118.937477 
	C707.081726,120.209572 708.668945,121.683678 710.177856,121.865105 
	C713.752991,122.294983 717.414917,122.003304 721.218506,122.003304 
	C721.218506,87.338264 721.218506,53.125713 721.218506,18.736080 
	C716.438599,18.736080 712.027161,18.736080 706.968323,18.736080 
	C706.968323,44.867271 706.968323,70.683868 706.968323,97.580475 
	C691.458923,79.890732 676.773438,63.140720 661.657593,45.827396 
M397.347137,21.835762 
	C376.282593,31.507450 365.307343,48.219543 365.332855,71.105888 
	C365.357544,93.244438 375.834869,109.913116 396.553314,118.528305 
	C417.121857,127.081169 437.684662,123.909050 457.678253,115.592659 
	C458.807617,115.122902 459.743530,112.775337 459.767242,111.285805 
	C459.942230,100.292137 459.862396,89.294426 459.862732,78.297981 
	C459.862823,75.889359 459.862762,73.480736 459.862762,70.799866 
	C453.374298,70.799866 447.719818,70.799866 442.065369,70.799866 
	C436.476196,70.799866 430.887024,70.799866 425.333099,70.799866 
	C425.333099,75.731758 425.333099,79.957680 425.333099,84.768234 
	C431.897980,84.768234 438.134888,84.768234 444.792297,84.768234 
	C444.792297,91.158226 444.979309,96.968925 444.641754,102.748978 
	C444.570312,103.972893 442.699585,105.939392 441.457489,106.110664 
	C432.954224,107.283180 424.323853,109.257614 415.873169,108.734207 
	C397.485657,107.595345 383.430939,93.562782 381.129089,75.734711 
	C378.722046,57.091843 389.192749,39.656357 406.655243,33.448986 
	C418.531891,29.227211 430.320831,30.901022 441.923004,34.621506 
	C447.226776,36.322292 452.327209,38.657230 457.861298,40.839184 
	C457.861298,36.645668 458.097168,32.808914 457.740662,29.028011 
	C457.605469,27.594051 456.419067,25.576397 455.180847,25.031656 
	C436.597565,16.856274 417.634064,13.774584 397.347137,21.835762 
M569.600891,178.992813 
	C562.677368,158.990433 548.234619,148.418320 527.528931,146.975189 
	C513.933899,146.027679 500.234741,146.568436 486.581970,146.479187 
	C485.977905,146.475235 485.371460,146.834702 484.806641,147.012161 
	C484.806641,178.437073 484.806641,209.647949 484.806641,241.208710 
	C497.682159,241.208710 510.162933,241.351501 522.639404,241.181259 
	C556.614197,240.717697 578.129700,212.664673 569.600891,178.992813 
M453.093170,231.603256 
	C473.596191,214.694107 477.192719,184.199600 460.564331,163.605682 
	C447.900055,147.921219 430.703247,143.249832 411.318848,145.983414 
	C393.357391,148.516327 379.961700,157.854019 372.976318,174.829178 
	C365.761932,192.360916 367.876434,209.230331 379.616425,224.213440 
	C396.244263,245.434555 429.245392,248.777588 453.093170,231.603256 
M722.717224,237.265610 
	C752.925598,221.902802 759.209717,181.829788 734.774109,158.688660 
	C721.867859,146.466064 705.928040,143.222534 688.876038,146.140106 
	C668.955750,149.548447 655.048401,160.863815 649.744568,180.645950 
	C644.419189,200.508423 649.256287,218.282761 665.528381,231.322769 
	C682.701050,245.084457 702.111145,245.428925 722.717224,237.265610 
M837.802795,172.499908 
	C837.802795,187.557755 837.802795,202.615585 837.802795,217.673431 
	C837.250183,217.985703 836.697571,218.297974 836.144958,218.610245 
	C835.598755,217.600601 835.218079,216.446564 834.481934,215.602478 
	C815.999146,194.407349 797.230225,173.454041 779.135315,151.933716 
	C774.440613,146.350235 769.604980,145.759094 763.385254,146.816406 
	C763.385254,178.309845 763.385254,209.655838 763.385254,240.915039 
	C767.713440,240.915039 771.648926,240.915039 776.111755,240.915039 
	C776.111755,217.134399 776.111755,193.629791 776.111755,169.202560 
	C777.919739,171.170746 779.046448,172.340561 780.110840,173.564590 
	C798.245972,194.418671 816.652222,215.047363 834.325439,236.286011 
	C839.359985,242.336243 844.616882,241.171616 850.624878,240.850586 
	C850.624878,209.259735 850.624878,178.173203 850.624878,146.756851 
	C846.326904,146.756851 842.263428,146.756851 837.802490,146.756851 
	C837.802490,155.212448 837.802490,163.356171 837.802795,172.499908 
M516.793579,41.499969 
	C516.794312,55.989170 516.700195,70.479156 516.820557,84.967361 
	C516.959961,101.752090 526.163086,114.544785 541.940063,120.338432 
	C551.269348,123.764351 560.909424,124.029259 570.511658,122.504601 
	C593.729187,118.818085 605.555176,104.818207 605.833801,80.964920 
	C606.004944,66.311096 605.865967,51.653660 605.866211,36.997845 
	C605.866272,31.031645 605.866150,25.065447 605.866150,18.810009 
	C600.581848,18.810009 595.717773,18.810009 590.413635,18.810009 
	C590.413635,20.838902 590.413635,22.474588 590.413696,24.110275 
	C590.414490,43.262760 590.479004,62.415516 590.396240,81.567642 
	C590.327820,97.392197 583.704895,105.759087 568.686768,108.601723 
	C551.051636,111.939697 530.023743,104.884003 531.679688,78.871147 
	C532.693359,62.947525 531.866699,46.906750 531.866516,30.918591 
	C531.866516,26.961657 531.866516,23.004721 531.866516,18.745758 
	C526.650208,18.745758 521.922913,18.745758 516.793335,18.745758 
	C516.793335,26.214100 516.793335,33.357044 516.793579,41.499969 
M599.208618,224.190308 
	C599.208618,216.240143 599.208618,208.289978 599.208618,199.837921 
	C612.378174,199.837921 624.962036,199.837921 637.740601,199.837921 
	C637.740601,195.419662 637.740601,191.518768 637.740601,187.099426 
	C624.899536,187.099426 612.321106,187.099426 599.524109,187.099426 
	C599.524109,177.519623 599.524109,168.462006 599.524109,158.834518 
	C612.893494,158.834518 625.958130,158.834518 638.919067,158.834518 
	C638.919067,154.483002 638.919067,150.706528 638.919067,146.762436 
	C621.062317,146.762436 603.499451,146.762436 585.751831,146.762436 
	C585.751831,178.348755 585.751831,209.579849 585.751831,240.997299 
	C604.048706,240.997299 622.003113,240.997299 640.208130,240.997299 
	C640.208130,236.904083 640.208130,233.026993 640.208130,228.790359 
	C627.680298,228.790359 615.530640,228.736755 603.382202,228.831451 
	C600.651489,228.852707 598.707825,228.500824 599.208618,224.190308 
M770.800964,118.355728 
	C771.647949,119.570160 772.403015,121.741219 773.357788,121.832893 
	C777.426270,122.223495 781.553711,121.998985 786.128784,121.998985 
	C786.128784,91.733589 786.128784,62.032814 786.128784,31.798717 
	C798.150757,31.798717 809.691528,31.798717 821.259766,31.798717 
	C821.259766,27.169609 821.259766,23.086729 821.259766,18.836256 
	C792.437256,18.836256 763.933533,18.836256 735.415955,18.836256 
	C735.415955,23.352100 735.415955,27.449484 735.415955,32.069500 
	C747.240967,32.069500 758.798462,32.069500 770.799866,32.069500 
	C770.799866,60.860405 770.799866,89.122116 770.800964,118.355728 
M835.385010,28.564905 
	C835.385010,59.629761 835.385010,90.694611 835.385010,121.814247 
	C840.793213,121.814247 845.411438,121.814247 850.281311,121.814247 
	C850.281311,87.393913 850.281311,53.188507 850.281311,18.382233 
	C848.165955,18.382233 846.382080,18.385956 844.598145,18.381605 
	C835.380005,18.359123 835.380005,18.358404 835.385010,28.564905 
M493.159332,18.431156 
	C489.239960,18.431156 485.320618,18.431156 481.393738,18.431156 
	C481.393738,53.346546 481.393738,87.417305 481.393738,121.715607 
	C486.370789,121.715607 491.090393,121.715607 495.643982,121.715607 
	C495.885681,121.287628 496.029907,121.151443 496.030182,121.015007 
	C496.091980,87.888184 496.163361,54.761311 496.106476,21.634651 
	C496.104645,20.575243 494.783508,19.518099 493.159332,18.431156 
M733.500000,330.997742 
	C772.603821,330.997742 811.707642,330.997742 850.811462,330.997742 
	C850.925354,330.330719 851.039185,329.663727 851.153076,328.996704 
	C849.215942,328.665222 847.278870,328.044067 845.341675,328.043518 
	C687.410706,327.998840 529.479736,328.002472 371.548737,328.002625 
	C369.761444,328.002625 367.974152,328.002655 366.186859,328.002655 
	C366.053223,328.669983 365.919556,329.337341 365.785919,330.004669 
	C367.576569,330.335571 369.367126,330.955475 371.157959,330.956146 
	C491.605286,331.001831 612.052612,330.997681 733.500000,330.997742 
M589.500000,269.002411 
	C515.076355,269.002411 440.652649,269.002411 366.228973,269.002411 
	C366.110260,269.655304 365.991516,270.308197 365.872803,270.961090 
	C367.785645,271.306549 369.698425,271.953857 371.611389,271.954437 
	C529.542480,272.001068 687.473633,271.997406 845.404724,271.997437 
	C847.194397,271.997437 848.984070,271.997467 850.773682,271.997467 
	C850.891418,271.344330 851.009094,270.691193 851.126770,270.038055 
	C849.380737,269.692871 847.634827,269.046631 845.888611,269.045624 
	C760.759094,268.996277 675.629517,269.002441 589.500000,269.002411 
M762.117126,298.686340 
	C762.117126,304.639160 762.117126,310.591949 762.117126,316.779724 
	C764.877380,316.779724 767.118042,316.779724 769.882812,316.779724 
	C769.882812,312.938812 770.065430,309.302917 769.832886,305.693817 
	C769.585815,301.859497 770.542175,298.747620 774.754028,298.544739 
	C779.411011,298.320374 779.133118,302.062256 779.120239,305.293457 
	C779.105225,309.075348 779.116699,312.857330 779.116699,316.737244 
	C781.954834,316.737244 784.194580,316.737244 786.883179,316.737244 
	C786.883179,313.001343 787.066040,309.525208 786.835754,306.076630 
	C786.562927,301.991364 787.881592,298.678345 792.127808,298.581665 
	C797.051392,298.469543 796.240234,302.837616 796.360291,306.024231 
	C796.494934,309.599640 796.391174,313.183990 796.391174,316.822723 
	C799.304077,316.822723 801.415039,316.822723 803.903625,316.822723 
	C803.903625,311.345703 804.258484,306.031189 803.810791,300.785156 
	C803.291382,294.698608 796.910767,291.433228 791.016602,293.939240 
	C789.222229,294.702209 787.637329,295.957825 785.784729,297.093048 
	C782.006958,292.912689 777.520142,292.109680 772.318604,294.344238 
	C771.412354,294.733521 770.056519,293.910950 768.936646,294.000885 
	C766.149658,294.224609 761.676147,291.576813 762.117126,298.686340 
M659.228271,291.308258 
	C665.609619,288.042664 671.687439,290.148132 677.731995,292.710785 
	C678.398560,284.100555 678.448914,283.493286 670.480835,282.832428 
	C665.250854,282.398651 659.476318,283.073883 654.615295,284.969574 
	C647.888428,287.592896 644.630920,293.619537 645.115173,300.985596 
	C645.596497,308.306000 649.423218,314.002655 656.489746,315.721802 
	C661.752625,317.002197 667.670349,316.866425 673.068909,315.978302 
	C679.292175,314.954529 679.654358,313.353241 677.858154,307.323639 
	C673.494629,308.211700 669.188843,309.706329 664.851562,309.804077 
	C660.115845,309.910736 656.168762,307.467102 654.591370,302.571625 
	C653.127441,298.028564 654.790283,294.468323 659.228271,291.308258 
M440.024750,291.187866 
	C440.024750,288.444702 440.024750,285.701569 440.024750,283.064941 
	C437.131439,283.064941 435.021210,283.064941 432.659119,283.064941 
	C432.659119,294.436890 432.659119,305.522308 432.659119,317.183990 
	C437.882996,317.183990 442.905151,317.621643 447.793396,317.002380 
	C450.297852,316.685059 453.079651,314.946808 454.824951,313.023834 
	C458.113342,309.400635 458.064117,302.172455 455.211426,298.011780 
	C452.235352,293.671143 448.005005,292.530792 442.939514,293.454590 
	C442.081268,293.611084 441.006287,292.579163 440.024750,291.187866 
M403.360352,310.382812 
	C400.424194,310.382812 397.488037,310.382812 394.006866,310.382812 
	C394.006866,300.734283 394.006866,291.846130 394.006866,283.121429 
	C390.855011,283.121429 388.263031,283.121429 385.708252,283.121429 
	C385.708252,294.550232 385.708252,305.624054 385.708252,316.704041 
	C394.431061,316.704041 402.824066,316.704041 411.170349,316.704041 
	C411.924774,310.392639 411.924774,310.392639 403.360352,310.382812 
M820.378967,298.319855 
	C821.643982,299.107605 822.909058,299.895325 825.087280,301.251740 
	C821.440430,302.538940 818.943726,303.334229 816.512817,304.295868 
	C811.265198,306.371796 809.340820,309.338715 810.652222,313.136353 
	C811.925598,316.824005 815.705994,318.059723 820.764526,316.885986 
	C822.582581,316.464142 824.684875,316.665924 826.535217,317.101898 
	C831.303772,318.225433 835.175842,316.072479 835.290222,311.829651 
	C834.150146,311.738739 832.997925,311.646881 831.615173,311.536621 
	C831.615173,308.159576 831.657227,305.174377 831.606567,302.190735 
	C831.499573,295.891785 829.250916,293.430786 822.910828,293.194855 
	C820.467712,293.103943 817.947693,293.578644 815.548218,294.152924 
	C811.582520,295.101959 810.326721,297.536896 811.998962,301.181488 
	C814.646729,300.189331 817.093933,299.272308 820.378967,298.319855 
M711.413025,294.589142 
	C710.727905,294.893951 709.959045,295.571014 709.372131,295.439087 
	C706.853821,294.872772 704.389038,294.068390 701.630859,293.271667 
	C701.630859,301.922302 701.630859,309.215973 701.630859,316.765656 
	C704.111206,316.765656 706.342407,316.765656 709.031128,316.765656 
	C709.031128,312.447144 708.530457,308.229492 709.236023,304.224365 
	C709.605347,302.127625 711.824951,299.186615 713.681641,298.778717 
	C717.003235,298.048950 717.294739,301.374420 717.348999,303.913757 
	C717.440186,308.182556 717.373962,312.454651 717.373962,316.778320 
	C720.181885,316.778320 722.285339,316.778320 724.888977,316.778320 
	C724.888977,312.082214 724.915771,307.620026 724.883179,303.158234 
	C724.822998,294.917786 720.057129,291.595612 711.413025,294.589142 
M731.622131,307.814423 
	C734.274414,316.293213 742.770813,319.775787 751.795349,316.242035 
	C754.785889,315.071045 756.080688,313.401947 754.765930,310.248840 
	C744.888184,314.162689 741.526123,313.507294 739.749084,306.645569 
	C745.101440,306.645569 750.287537,306.645569 755.663025,306.645569 
	C755.663208,300.427307 753.620056,296.265930 748.378174,294.060608 
	C741.047058,290.976410 730.366516,295.417114 731.622131,307.814423 
M577.556030,316.352356 
	C578.540649,314.904053 579.525269,313.455780 580.509888,312.007477 
	C579.825867,312.083435 579.141907,312.159393 578.457947,312.235321 
	C577.645203,311.321442 576.246948,310.475525 576.131592,309.480743 
	C575.808289,306.694336 575.936646,303.843842 576.030762,301.023438 
	C576.169800,296.860443 574.203735,294.231171 570.175537,293.714417 
	C567.282776,293.343323 564.266052,293.554871 561.345276,293.876068 
	C556.885925,294.366486 554.842407,296.767578 556.369751,301.534729 
	C560.195923,300.059601 563.999207,295.885376 569.100952,301.214508 
	C565.524963,302.623352 562.443665,303.356689 559.935974,304.977417 
	C557.930359,306.273682 555.664368,308.440643 555.196838,310.587646 
	C554.102234,315.614502 559.045044,318.466370 565.169495,316.832184 
	C566.599121,316.450684 568.121399,316.245148 569.599182,316.254333 
	C571.993164,316.269135 574.385681,316.528534 577.556030,316.352356 
M499.858948,312.741089 
	C496.929688,311.926636 494.054077,311.059601 494.195770,306.609253 
	C496.793427,306.609253 499.258636,306.609283 501.723816,306.609283 
	C504.353821,306.609283 506.983856,306.609253 509.563080,306.609253 
	C510.338898,298.547882 505.646698,293.210602 498.175262,293.123291 
	C490.444397,293.032928 485.257935,298.821167 485.938141,306.780365 
	C486.596161,314.479553 493.546478,318.595428 503.268738,317.043304 
	C508.909210,316.142822 510.206543,314.610504 509.144928,310.462830 
	C506.311981,311.231537 503.478943,312.000244 499.858948,312.741089 
M621.837708,310.230469 
	C613.895447,314.502136 609.189941,313.469238 607.643555,306.394531 
	C612.964783,306.394531 618.143494,306.394531 623.308533,306.394531 
	C623.085693,299.299194 620.827759,295.676697 616.000793,293.952209 
	C610.999878,292.165588 605.585693,293.400696 602.253418,297.088348 
	C598.959351,300.733765 598.267517,306.569672 600.595886,311.069916 
	C603.511597,316.705322 611.691284,318.989044 619.169312,316.443665 
	C622.386658,315.348572 623.966797,313.655670 621.837708,310.230469 
M465.484772,293.825592 
	C464.996826,294.360657 464.091400,294.890106 464.084106,295.431641 
	C463.989044,302.519318 464.020996,309.608704 464.020996,316.700745 
	C466.751190,316.700745 468.970642,316.700745 471.141968,316.700745 
	C473.332672,299.698822 473.332672,299.698822 482.674225,301.456604 
	C482.401917,298.849396 483.040771,295.468323 481.744659,294.369232 
	C478.115326,291.291809 475.106750,294.230591 473.572205,295.912750 
	C470.554840,295.018799 468.474945,294.402618 465.484772,293.825592 
M525.778992,303.570038 
	C528.456543,302.331818 531.134094,301.093597 533.811584,299.855377 
	C535.296387,298.177887 538.199158,294.139465 532.625854,293.612030 
	C529.864685,293.350739 526.830688,295.972198 524.115356,297.201080 
	C524.019104,296.648376 523.780334,295.277130 523.565247,294.041687 
	C521.200928,294.041687 519.264465,294.041687 517.176636,294.041687 
	C517.176636,301.782288 517.176636,309.283386 517.176636,316.670715 
	C519.621948,316.670715 521.686279,316.670715 523.327393,316.670715 
	C524.031128,312.253601 524.672607,308.227356 525.778992,303.570038 
M424.879547,315.113617 
	C424.879547,308.179657 424.879547,301.245697 424.879547,294.049561 
	C422.282928,294.049561 420.052429,294.049561 417.609100,294.049561 
	C417.609100,301.733337 417.609100,309.122070 417.609100,317.367065 
	C420.239868,316.876648 422.503754,316.454590 424.879547,315.113617 
M686.116516,299.645142 
	C686.116516,305.271515 686.116516,310.897858 686.116516,316.767700 
	C688.858337,316.767700 691.099548,316.767700 693.612671,316.767700 
	C693.612671,309.154968 693.612671,301.746674 693.612671,294.058716 
	C691.125977,294.058716 688.890259,294.058716 686.371826,294.058716 
	C686.278259,295.754578 686.197571,297.218597 686.116516,299.645142 
M545.487793,293.820740 
	C544.078186,293.925903 542.668579,294.031036 541.274414,294.135010 
	C541.274414,301.908508 541.274414,309.275299 541.274414,316.740662 
	C543.613586,316.740662 545.673584,316.740662 548.159058,316.740662 
	C548.159058,309.586761 548.204895,302.681580 548.084473,295.779266 
	C548.073120,295.127167 547.017273,294.493256 545.487793,293.820740 
M548.430664,287.832550 
	C547.822693,286.145355 547.570312,284.142517 546.464722,282.897095 
	C545.863892,282.220215 542.966858,282.322174 542.582092,282.961456 
	C541.628418,284.546173 540.553040,287.225037 541.269409,288.417175 
	C543.049316,291.379333 545.783447,291.274994 548.430664,287.832550 
M419.957153,290.237366 
	C421.671631,289.184052 423.921326,288.461487 424.866150,286.932556 
	C425.312927,286.209656 423.595215,283.275970 422.232330,282.593292 
	C421.203033,282.077698 417.918304,283.421356 417.845947,284.155243 
	C417.659973,286.041595 418.702362,288.049011 419.957153,290.237366 
M686.963867,289.214478 
	C689.535522,291.229919 692.276672,291.138275 693.430054,288.151062 
	C693.973694,286.742981 692.416443,284.222137 691.239258,282.627686 
	C690.866211,282.122314 687.863525,282.545044 687.433044,283.311676 
	C686.599243,284.796509 686.736877,286.826782 686.963867,289.214478 
z"/>
<path fill="#FEFEFE" opacity="1.000000" stroke="none" 
	d="
M48.762108,193.072052 
	C42.219273,169.144333 50.531086,150.143448 68.249229,135.322495 
	C92.793861,114.791336 121.175339,110.340530 151.792160,118.676041 
	C153.664444,119.185768 155.533600,119.706894 157.597137,119.678688 
	C137.995285,98.985817 113.866333,88.969200 85.484657,90.096901 
	C57.032852,91.227386 33.684895,103.354385 14.796543,125.909660 
	C14.796543,88.682030 14.796543,52.474468 14.796543,16.037609 
	C119.467384,16.037609 223.907623,16.037609 328.769806,16.037609 
	C328.769806,47.817951 328.769806,79.621483 328.769806,111.999863 
	C305.402710,79.458633 274.249298,64.355736 234.949524,70.129066 
	C195.590042,75.911163 170.560501,99.506950 158.376678,137.602509 
	C148.850113,134.554138 139.032196,133.723297 129.128830,136.059586 
	C118.591820,138.545334 109.618469,143.639221 103.034813,152.433151 
	C92.365433,166.684464 95.723312,184.976471 111.112564,194.918518 
	C115.507675,197.757935 120.563721,199.574326 125.633240,202.012039 
	C116.815971,215.069107 104.174568,221.886093 88.279114,221.297623 
	C69.427605,220.599731 55.886051,211.409393 48.762108,193.072052 
z"/>
<path fill="#FDFDFD" opacity="1.000000" stroke="none" 
	d="
M20.977665,241.004089 
	C67.566986,288.848877 147.982132,275.529144 175.499252,214.666306 
	C196.307205,238.587631 222.531403,250.382843 254.057678,248.693298 
	C285.595184,247.003174 310.421570,232.564713 328.861877,205.628601 
	C328.861877,247.688705 328.861877,288.727142 328.861877,330.169067 
	C244.131683,330.169067 159.411362,330.169067 74.845207,330.169067 
	C81.533142,324.065735 150.821228,299.136902 181.543243,292.355804 
	C218.606949,284.174927 256.061859,278.501526 293.995483,276.394867 
	C198.011383,272.474762 105.978951,292.803894 14.904545,322.224426 
	C14.904545,292.994598 14.904545,264.056793 14.904545,234.330322 
	C17.200954,236.844452 18.974838,238.786514 20.977665,241.004089 
z"/>
<path fill="#FEFEFE" opacity="1.000000" stroke="none" 
	d="
M196.895248,152.952850 
	C200.490845,124.844131 226.664459,104.860023 254.942200,108.243874 
	C284.582275,111.790756 304.441742,136.581543 301.054840,165.806839 
	C298.021759,191.978989 271.226166,212.747360 244.543106,209.607117 
	C214.126053,206.027466 193.682602,181.929886 196.895248,152.952850 
z"/>
<path fill="#FBFBFB" opacity="1.000000" stroke="none" 
	d="
M661.872803,46.109055 
	C676.773438,63.140720 691.458923,79.890732 706.968323,97.580475 
	C706.968323,70.683868 706.968323,44.867271 706.968323,18.736080 
	C712.027161,18.736080 716.438599,18.736080 721.218506,18.736080 
	C721.218506,53.125713 721.218506,87.338264 721.218506,122.003304 
	C717.414917,122.003304 713.752991,122.294983 710.177856,121.865105 
	C708.668945,121.683678 707.081726,120.209572 705.972229,118.937477 
	C685.284607,95.217468 664.666138,71.437134 644.021545,47.679607 
	C642.972961,46.472954 641.819580,45.357491 639.936401,43.383381 
	C639.936401,70.106934 639.936401,95.790558 639.936401,121.738983 
	C635.120239,121.738983 630.855896,121.738983 626.190918,121.738983 
	C626.190918,87.564156 626.190918,53.354733 626.190918,18.901281 
	C632.509644,17.847221 638.067261,17.577988 642.734680,23.924496 
	C648.433350,31.673309 655.297485,38.565033 661.872803,46.109055 
z"/>
<path fill="#FCFCFC" opacity="1.000000" stroke="none" 
	d="
M397.695465,21.677097 
	C417.634064,13.774584 436.597565,16.856274 455.180847,25.031656 
	C456.419067,25.576397 457.605469,27.594051 457.740662,29.028011 
	C458.097168,32.808914 457.861298,36.645668 457.861298,40.839184 
	C452.327209,38.657230 447.226776,36.322292 441.923004,34.621506 
	C430.320831,30.901022 418.531891,29.227211 406.655243,33.448986 
	C389.192749,39.656357 378.722046,57.091843 381.129089,75.734711 
	C383.430939,93.562782 397.485657,107.595345 415.873169,108.734207 
	C424.323853,109.257614 432.954224,107.283180 441.457489,106.110664 
	C442.699585,105.939392 444.570312,103.972893 444.641754,102.748978 
	C444.979309,96.968925 444.792297,91.158226 444.792297,84.768234 
	C438.134888,84.768234 431.897980,84.768234 425.333099,84.768234 
	C425.333099,79.957680 425.333099,75.731758 425.333099,70.799866 
	C430.887024,70.799866 436.476196,70.799866 442.065369,70.799866 
	C447.719818,70.799866 453.374298,70.799866 459.862762,70.799866 
	C459.862762,73.480736 459.862823,75.889359 459.862732,78.297981 
	C459.862396,89.294426 459.942230,100.292137 459.767242,111.285805 
	C459.743530,112.775337 458.807617,115.122902 457.678253,115.592659 
	C437.684662,123.909050 417.121857,127.081169 396.553314,118.528305 
	C375.834869,109.913116 365.357544,93.244438 365.332855,71.105888 
	C365.307343,48.219543 376.282593,31.507450 397.695465,21.677097 
z"/>
<path fill="#F9F9FA" opacity="1.000000" stroke="none" 
	d="
M569.729309,179.376709 
	C578.129700,212.664673 556.614197,240.717697 522.639404,241.181259 
	C510.162933,241.351501 497.682159,241.208710 484.806641,241.208710 
	C484.806641,209.647949 484.806641,178.437073 484.806641,147.012161 
	C485.371460,146.834702 485.977905,146.475235 486.581970,146.479187 
	C500.234741,146.568436 513.933899,146.027679 527.528931,146.975189 
	C548.234619,148.418320 562.677368,158.990433 569.729309,179.376709 
M526.520691,228.245132 
	C527.182556,228.169205 527.848816,228.120331 528.505676,228.013412 
	C545.239563,225.289307 556.692383,212.345963 557.398071,195.368744 
	C558.134155,177.661118 548.725708,164.013733 531.617004,160.701370 
	C521.005432,158.646912 509.910156,159.090729 498.952087,158.408188 
	C498.952087,182.508865 498.952087,205.399979 498.952087,228.365067 
	C508.090424,228.365067 516.868347,228.365067 526.520691,228.245132 
z"/>
<path fill="#FCFCFC" opacity="1.000000" stroke="none" 
	d="
M452.813232,231.827057 
	C429.245392,248.777588 396.244263,245.434555 379.616425,224.213440 
	C367.876434,209.230331 365.761932,192.360916 372.976318,174.829178 
	C379.961700,157.854019 393.357391,148.516327 411.318848,145.983414 
	C430.703247,143.249832 447.900055,147.921219 460.564331,163.605682 
	C477.192719,184.199600 473.596191,214.694107 452.813232,231.827057 
M431.439453,159.756287 
	C429.499451,159.305389 427.577362,158.747498 425.616760,158.419769 
	C399.154327,153.996353 377.438049,178.055573 384.718048,203.705505 
	C389.373840,220.109375 404.458008,230.765305 421.637054,229.786240 
	C439.444672,228.771362 453.477539,216.809280 456.000732,200.493500 
	C458.905334,181.711365 450.074982,166.652481 431.439453,159.756287 
z"/>
<path fill="#FCFCFC" opacity="1.000000" stroke="none" 
	d="
M722.394470,237.460876 
	C702.111145,245.428925 682.701050,245.084457 665.528381,231.322769 
	C649.256287,218.282761 644.419189,200.508423 649.744568,180.645950 
	C655.048401,160.863815 668.955750,149.548447 688.876038,146.140106 
	C705.928040,143.222534 721.867859,146.466064 734.774109,158.688660 
	C759.209717,181.829788 752.925598,221.902802 722.394470,237.460876 
M711.750427,227.516418 
	C717.113708,223.734344 723.548645,220.853180 727.632446,215.995499 
	C738.401184,203.185776 737.735107,183.317886 727.236633,170.781158 
	C716.423157,157.868256 696.153259,154.160156 680.749390,162.276993 
	C665.951599,170.074478 658.791809,187.437103 663.520630,204.057068 
	C669.161560,223.882782 689.174255,233.893219 711.750427,227.516418 
z"/>
<path fill="#FDFDFD" opacity="1.000000" stroke="none" 
	d="
M837.802612,171.999908 
	C837.802490,163.356171 837.802490,155.212448 837.802490,146.756851 
	C842.263428,146.756851 846.326904,146.756851 850.624878,146.756851 
	C850.624878,178.173203 850.624878,209.259735 850.624878,240.850586 
	C844.616882,241.171616 839.359985,242.336243 834.325439,236.286011 
	C816.652222,215.047363 798.245972,194.418671 780.110840,173.564590 
	C779.046448,172.340561 777.919739,171.170746 776.111755,169.202560 
	C776.111755,193.629791 776.111755,217.134399 776.111755,240.915039 
	C771.648926,240.915039 767.713440,240.915039 763.385254,240.915039 
	C763.385254,209.655838 763.385254,178.309845 763.385254,146.816406 
	C769.604980,145.759094 774.440613,146.350235 779.135315,151.933716 
	C797.230225,173.454041 815.999146,194.407349 834.481934,215.602478 
	C835.218079,216.446564 835.598755,217.600601 836.144958,218.610245 
	C836.697571,218.297974 837.250183,217.985703 837.802795,217.673431 
	C837.802795,202.615585 837.802795,187.557755 837.802612,171.999908 
z"/>
<path fill="#FAFAFB" opacity="1.000000" stroke="none" 
	d="
M516.793457,40.999981 
	C516.793335,33.357044 516.793335,26.214100 516.793335,18.745758 
	C521.922913,18.745758 526.650208,18.745758 531.866516,18.745758 
	C531.866516,23.004721 531.866516,26.961657 531.866516,30.918591 
	C531.866699,46.906750 532.693359,62.947525 531.679688,78.871147 
	C530.023743,104.884003 551.051636,111.939697 568.686768,108.601723 
	C583.704895,105.759087 590.327820,97.392197 590.396240,81.567642 
	C590.479004,62.415516 590.414490,43.262760 590.413696,24.110275 
	C590.413635,22.474588 590.413635,20.838902 590.413635,18.810009 
	C595.717773,18.810009 600.581848,18.810009 605.866150,18.810009 
	C605.866150,25.065447 605.866272,31.031645 605.866211,36.997845 
	C605.865967,51.653660 606.004944,66.311096 605.833801,80.964920 
	C605.555176,104.818207 593.729187,118.818085 570.511658,122.504601 
	C560.909424,124.029259 551.269348,123.764351 541.940063,120.338432 
	C526.163086,114.544785 516.959961,101.752090 516.820557,84.967361 
	C516.700195,70.479156 516.794312,55.989170 516.793457,40.999981 
z"/>
<path fill="#FAFAFA" opacity="1.000000" stroke="none" 
	d="
M599.209290,224.657532 
	C598.707825,228.500824 600.651489,228.852707 603.382202,228.831451 
	C615.530640,228.736755 627.680298,228.790359 640.208130,228.790359 
	C640.208130,233.026993 640.208130,236.904083 640.208130,240.997299 
	C622.003113,240.997299 604.048706,240.997299 585.751831,240.997299 
	C585.751831,209.579849 585.751831,178.348755 585.751831,146.762436 
	C603.499451,146.762436 621.062317,146.762436 638.919067,146.762436 
	C638.919067,150.706528 638.919067,154.483002 638.919067,158.834518 
	C625.958130,158.834518 612.893494,158.834518 599.524109,158.834518 
	C599.524109,168.462006 599.524109,177.519623 599.524109,187.099426 
	C612.321106,187.099426 624.899536,187.099426 637.740601,187.099426 
	C637.740601,191.518768 637.740601,195.419662 637.740601,199.837921 
	C624.962036,199.837921 612.378174,199.837921 599.208618,199.837921 
	C599.208618,208.289978 599.208618,216.240143 599.209290,224.657532 
z"/>
<path fill="#FCFCFC" opacity="1.000000" stroke="none" 
	d="
M770.800415,117.869774 
	C770.799866,89.122116 770.799866,60.860405 770.799866,32.069500 
	C758.798462,32.069500 747.240967,32.069500 735.415955,32.069500 
	C735.415955,27.449484 735.415955,23.352100 735.415955,18.836256 
	C763.933533,18.836256 792.437256,18.836256 821.259766,18.836256 
	C821.259766,23.086729 821.259766,27.169609 821.259766,31.798717 
	C809.691528,31.798717 798.150757,31.798717 786.128784,31.798717 
	C786.128784,62.032814 786.128784,91.733589 786.128784,121.998985 
	C781.553711,121.998985 777.426270,122.223495 773.357788,121.832893 
	C772.403015,121.741219 771.647949,119.570160 770.800415,117.869774 
z"/>
<path fill="#F5F5F6" opacity="1.000000" stroke="none" 
	d="
M835.385010,28.079231 
	C835.380005,18.358404 835.380005,18.359123 844.598145,18.381605 
	C846.382080,18.385956 848.165955,18.382233 850.281311,18.382233 
	C850.281311,53.188507 850.281311,87.393913 850.281311,121.814247 
	C845.411438,121.814247 840.793213,121.814247 835.385010,121.814247 
	C835.385010,90.694611 835.385010,59.629761 835.385010,28.079231 
z"/>
<path fill="#FCFCFC" opacity="1.000000" stroke="none" 
	d="
M493.618347,18.445526 
	C494.783508,19.518099 496.104645,20.575243 496.106476,21.634651 
	C496.163361,54.761311 496.091980,87.888184 496.030182,121.015007 
	C496.029907,121.151443 495.885681,121.287628 495.643982,121.715607 
	C491.090393,121.715607 486.370789,121.715607 481.393738,121.715607 
	C481.393738,87.417305 481.393738,53.346546 481.393738,18.431156 
	C485.320618,18.431156 489.239960,18.431156 493.618347,18.445526 
z"/>
<path fill="#FFFFFF" opacity="1.000000" stroke="none" 
	d="
M733.000000,330.997772 
	C612.052612,330.997681 491.605286,331.001831 371.157959,330.956146 
	C369.367126,330.955475 367.576569,330.335571 365.785919,330.004669 
	C365.919556,329.337341 366.053223,328.669983 366.186859,328.002655 
	C367.974152,328.002655 369.761444,328.002625 371.548737,328.002625 
	C529.479736,328.002472 687.410706,327.998840 845.341675,328.043518 
	C847.278870,328.044067 849.215942,328.665222 851.153076,328.996704 
	C851.039185,329.663727 850.925354,330.330719 850.811462,330.997742 
	C811.707642,330.997742 772.603821,330.997742 733.000000,330.997772 
z"/>
<path fill="#FFFFFF" opacity="1.000000" stroke="none" 
	d="
M590.000000,269.002411 
	C675.629517,269.002441 760.759094,268.996277 845.888611,269.045624 
	C847.634827,269.046631 849.380737,269.692871 851.126770,270.038055 
	C851.009094,270.691193 850.891418,271.344330 850.773682,271.997467 
	C848.984070,271.997467 847.194397,271.997437 845.404724,271.997437 
	C687.473633,271.997406 529.542480,272.001068 371.611389,271.954437 
	C369.698425,271.953857 367.785645,271.306549 365.872803,270.961090 
	C365.991516,270.308197 366.110260,269.655304 366.228973,269.002411 
	C440.652649,269.002411 515.076355,269.002411 590.000000,269.002411 
z"/>
<path fill="#F6F6F7" opacity="1.000000" stroke="none" 
	d="
M762.117554,298.210724 
	C761.676147,291.576813 766.149658,294.224609 768.936646,294.000885 
	C770.056519,293.910950 771.412354,294.733521 772.318604,294.344238 
	C777.520142,292.109680 782.006958,292.912689 785.784729,297.093048 
	C787.637329,295.957825 789.222229,294.702209 791.016602,293.939240 
	C796.910767,291.433228 803.291382,294.698608 803.810791,300.785156 
	C804.258484,306.031189 803.903625,311.345703 803.903625,316.822723 
	C801.415039,316.822723 799.304077,316.822723 796.391174,316.822723 
	C796.391174,313.183990 796.494934,309.599640 796.360291,306.024231 
	C796.240234,302.837616 797.051392,298.469543 792.127808,298.581665 
	C787.881592,298.678345 786.562927,301.991364 786.835754,306.076630 
	C787.066040,309.525208 786.883179,313.001343 786.883179,316.737244 
	C784.194580,316.737244 781.954834,316.737244 779.116699,316.737244 
	C779.116699,312.857330 779.105225,309.075348 779.120239,305.293457 
	C779.133118,302.062256 779.411011,298.320374 774.754028,298.544739 
	C770.542175,298.747620 769.585815,301.859497 769.832886,305.693817 
	C770.065430,309.302917 769.882812,312.938812 769.882812,316.779724 
	C767.118042,316.779724 764.877380,316.779724 762.117126,316.779724 
	C762.117126,310.591949 762.117126,304.639160 762.117554,298.210724 
z"/>
<path fill="#F9F9FA" opacity="1.000000" stroke="none" 
	d="
M658.911987,291.550049 
	C654.790283,294.468323 653.127441,298.028564 654.591370,302.571625 
	C656.168762,307.467102 660.115845,309.910736 664.851562,309.804077 
	C669.188843,309.706329 673.494629,308.211700 677.858154,307.323639 
	C679.654358,313.353241 679.292175,314.954529 673.068909,315.978302 
	C667.670349,316.866425 661.752625,317.002197 656.489746,315.721802 
	C649.423218,314.002655 645.596497,308.306000 645.115173,300.985596 
	C644.630920,293.619537 647.888428,287.592896 654.615295,284.969574 
	C659.476318,283.073883 665.250854,282.398651 670.480835,282.832428 
	C678.448914,283.493286 678.398560,284.100555 677.731995,292.710785 
	C671.687439,290.148132 665.609619,288.042664 658.911987,291.550049 
z"/>
<path fill="#F6F6F7" opacity="1.000000" stroke="none" 
	d="
M440.028107,291.642090 
	C441.006287,292.579163 442.081268,293.611084 442.939514,293.454590 
	C448.005005,292.530792 452.235352,293.671143 455.211426,298.011780 
	C458.064117,302.172455 458.113342,309.400635 454.824951,313.023834 
	C453.079651,314.946808 450.297852,316.685059 447.793396,317.002380 
	C442.905151,317.621643 437.882996,317.183990 432.659119,317.183990 
	C432.659119,305.522308 432.659119,294.436890 432.659119,283.064941 
	C435.021210,283.064941 437.131439,283.064941 440.024750,283.064941 
	C440.024750,285.701569 440.024750,288.444702 440.028107,291.642090 
M448.509216,309.572998 
	C448.702576,307.163544 449.682281,304.425781 448.854309,302.442749 
	C448.118439,300.680359 445.489716,298.931824 443.495148,298.661255 
	C440.793182,298.294678 439.656403,300.575928 440.004059,303.334290 
	C440.126495,304.305756 439.824371,305.357574 440.065399,306.281555 
	C440.525024,308.043701 440.894714,310.907806 441.917358,311.206482 
	C443.711792,311.730469 445.970093,310.666077 448.509216,309.572998 
z"/>
<path fill="#F5F5F6" opacity="1.000000" stroke="none" 
	d="
M403.837769,310.383057 
	C411.924774,310.392639 411.924774,310.392639 411.170349,316.704041 
	C402.824066,316.704041 394.431061,316.704041 385.708252,316.704041 
	C385.708252,305.624054 385.708252,294.550232 385.708252,283.121429 
	C388.263031,283.121429 390.855011,283.121429 394.006866,283.121429 
	C394.006866,291.846130 394.006866,300.734283 394.006866,310.382812 
	C397.488037,310.382812 400.424194,310.382812 403.837769,310.383057 
z"/>
<path fill="#F5F5F6" opacity="1.000000" stroke="none" 
	d="
M819.960022,298.337585 
	C817.093933,299.272308 814.646729,300.189331 811.998962,301.181488 
	C810.326721,297.536896 811.582520,295.101959 815.548218,294.152924 
	C817.947693,293.578644 820.467712,293.103943 822.910828,293.194855 
	C829.250916,293.430786 831.499573,295.891785 831.606567,302.190735 
	C831.657227,305.174377 831.615173,308.159576 831.615173,311.536621 
	C832.997925,311.646881 834.150146,311.738739 835.290222,311.829651 
	C835.175842,316.072479 831.303772,318.225433 826.535217,317.101898 
	C824.684875,316.665924 822.582581,316.464142 820.764526,316.885986 
	C815.705994,318.059723 811.925598,316.824005 810.652222,313.136353 
	C809.340820,309.338715 811.265198,306.371796 816.512817,304.295868 
	C818.943726,303.334229 821.440430,302.538940 825.087280,301.251740 
	C822.909058,299.895325 821.643982,299.107605 819.960022,298.337585 
M823.817993,310.895508 
	C823.817993,309.369171 823.817993,307.842865 823.817993,306.316528 
	C823.325378,306.043549 822.832825,305.770569 822.340210,305.497589 
	C820.990051,307.467926 819.639893,309.438263 818.289673,311.408600 
	C819.981201,311.447388 821.672668,311.486176 823.817993,310.895508 
z"/>
<path fill="#F5F5F6" opacity="1.000000" stroke="none" 
	d="
M711.729370,294.383484 
	C720.057129,291.595612 724.822998,294.917786 724.883179,303.158234 
	C724.915771,307.620026 724.888977,312.082214 724.888977,316.778320 
	C722.285339,316.778320 720.181885,316.778320 717.373962,316.778320 
	C717.373962,312.454651 717.440186,308.182556 717.348999,303.913757 
	C717.294739,301.374420 717.003235,298.048950 713.681641,298.778717 
	C711.824951,299.186615 709.605347,302.127625 709.236023,304.224365 
	C708.530457,308.229492 709.031128,312.447144 709.031128,316.765656 
	C706.342407,316.765656 704.111206,316.765656 701.630859,316.765656 
	C701.630859,309.215973 701.630859,301.922302 701.630859,293.271667 
	C704.389038,294.068390 706.853821,294.872772 709.372131,295.439087 
	C709.959045,295.571014 710.727905,294.893951 711.729370,294.383484 
z"/>
<path fill="#F5F5F6" opacity="1.000000" stroke="none" 
	d="
M731.550903,307.425446 
	C730.366516,295.417114 741.047058,290.976410 748.378174,294.060608 
	C753.620056,296.265930 755.663208,300.427307 755.663025,306.645569 
	C750.287537,306.645569 745.101440,306.645569 739.749084,306.645569 
	C741.526123,313.507294 744.888184,314.162689 754.765930,310.248840 
	C756.080688,313.401947 754.785889,315.071045 751.795349,316.242035 
	C742.770813,319.775787 734.274414,316.293213 731.550903,307.425446 
M741.883118,302.351227 
	C743.960876,302.351227 746.038574,302.351227 748.330994,302.351227 
	C747.882629,298.199432 745.536926,297.383881 742.727478,298.230988 
	C741.266846,298.671387 738.488220,299.612549 741.883118,302.351227 
z"/>
<path fill="#FAFAFA" opacity="1.000000" stroke="none" 
	d="
M577.167419,316.518494 
	C574.385681,316.528534 571.993164,316.269135 569.599182,316.254333 
	C568.121399,316.245148 566.599121,316.450684 565.169495,316.832184 
	C559.045044,318.466370 554.102234,315.614502 555.196838,310.587646 
	C555.664368,308.440643 557.930359,306.273682 559.935974,304.977417 
	C562.443665,303.356689 565.524963,302.623352 569.100952,301.214508 
	C563.999207,295.885376 560.195923,300.059601 556.369751,301.534729 
	C554.842407,296.767578 556.885925,294.366486 561.345276,293.876068 
	C564.266052,293.554871 567.282776,293.343323 570.175537,293.714417 
	C574.203735,294.231171 576.169800,296.860443 576.030762,301.023438 
	C575.936646,303.843842 575.808289,306.694336 576.131592,309.480743 
	C576.246948,310.475525 577.645203,311.321442 578.457947,312.235321 
	C579.141907,312.159393 579.825867,312.083435 580.509888,312.007477 
	C579.525269,313.455780 578.540649,314.904053 577.167419,316.518494 
M563.533264,312.247620 
	C568.583496,312.525146 569.228760,311.608185 567.605774,306.119568 
	C565.365295,307.507507 561.650757,307.450745 563.533264,312.247620 
z"/>
<path fill="#F6F6F7" opacity="1.000000" stroke="none" 
	d="
M500.252441,312.755005 
	C503.478943,312.000244 506.311981,311.231537 509.144928,310.462830 
	C510.206543,314.610504 508.909210,316.142822 503.268738,317.043304 
	C493.546478,318.595428 486.596161,314.479553 485.938141,306.780365 
	C485.257935,298.821167 490.444397,293.032928 498.175262,293.123291 
	C505.646698,293.210602 510.338898,298.547882 509.563080,306.609253 
	C506.983856,306.609253 504.353821,306.609283 501.723816,306.609283 
	C499.258636,306.609283 496.793427,306.609253 494.195770,306.609253 
	C494.054077,311.059601 496.929688,311.926636 500.252441,312.755005 
M497.724274,297.895599 
	C496.363190,298.962891 495.002075,300.030182 493.640991,301.097504 
	C493.858307,301.411682 494.075592,301.725861 494.292908,302.040039 
	C497.191864,302.040039 500.090790,302.040039 502.989746,302.040039 
	C503.161346,301.569366 503.332947,301.098724 503.504547,300.628052 
	C501.843445,299.696045 500.182343,298.764038 497.724274,297.895599 
z"/>
<path fill="#F6F6F7" opacity="1.000000" stroke="none" 
	d="
M622.232178,310.210205 
	C623.966797,313.655670 622.386658,315.348572 619.169312,316.443665 
	C611.691284,318.989044 603.511597,316.705322 600.595886,311.069916 
	C598.267517,306.569672 598.959351,300.733765 602.253418,297.088348 
	C605.585693,293.400696 610.999878,292.165588 616.000793,293.952209 
	C620.827759,295.676697 623.085693,299.299194 623.308533,306.394531 
	C618.143494,306.394531 612.964783,306.394531 607.643555,306.394531 
	C609.189941,313.469238 613.895447,314.502136 622.232178,310.210205 
M612.372864,297.830444 
	C610.632568,298.840607 608.892273,299.850739 607.151978,300.860901 
	C607.429749,301.275024 607.707458,301.689148 607.985168,302.103271 
	C610.782471,302.103271 613.579834,302.103271 616.377136,302.103271 
	C616.534912,301.767944 616.692749,301.432587 616.850586,301.097260 
	C615.607971,300.047821 614.365295,298.998383 612.372864,297.830444 
z"/>
<path fill="#F6F6F7" opacity="1.000000" stroke="none" 
	d="
M465.939911,293.806030 
	C468.474945,294.402618 470.554840,295.018799 473.572205,295.912750 
	C475.106750,294.230591 478.115326,291.291809 481.744659,294.369232 
	C483.040771,295.468323 482.401917,298.849396 482.674225,301.456604 
	C473.332672,299.698822 473.332672,299.698822 471.141968,316.700745 
	C468.970642,316.700745 466.751190,316.700745 464.020996,316.700745 
	C464.020996,309.608704 463.989044,302.519318 464.084106,295.431641 
	C464.091400,294.890106 464.996826,294.360657 465.939911,293.806030 
z"/>
<path fill="#FDFDFD" opacity="1.000000" stroke="none" 
	d="
M525.546509,303.885559 
	C524.672607,308.227356 524.031128,312.253601 523.327393,316.670715 
	C521.686279,316.670715 519.621948,316.670715 517.176636,316.670715 
	C517.176636,309.283386 517.176636,301.782288 517.176636,294.041687 
	C519.264465,294.041687 521.200928,294.041687 523.565247,294.041687 
	C523.780334,295.277130 524.019104,296.648376 524.115356,297.201080 
	C526.830688,295.972198 529.864685,293.350739 532.625854,293.612030 
	C538.199158,294.139465 535.296387,298.177887 533.811584,299.855377 
	C531.134094,301.093597 528.456543,302.331818 525.546509,303.885559 
z"/>
<path fill="#F1F1F2" opacity="1.000000" stroke="none" 
	d="
M424.823608,315.573090 
	C422.503754,316.454590 420.239868,316.876648 417.609100,317.367065 
	C417.609100,309.122070 417.609100,301.733337 417.609100,294.049561 
	C420.052429,294.049561 422.282928,294.049561 424.879547,294.049561 
	C424.879547,301.245697 424.879547,308.179657 424.823608,315.573090 
z"/>
<path fill="#F6F6F7" opacity="1.000000" stroke="none" 
	d="
M686.116699,299.163879 
	C686.197571,297.218597 686.278259,295.754578 686.371826,294.058716 
	C688.890259,294.058716 691.125977,294.058716 693.612671,294.058716 
	C693.612671,301.746674 693.612671,309.154968 693.612671,316.767700 
	C691.099548,316.767700 688.858337,316.767700 686.116516,316.767700 
	C686.116516,310.897858 686.116516,305.271515 686.116699,299.163879 
z"/>
<path fill="#FFFFFF" opacity="1.000000" stroke="none" 
	d="
M545.967041,293.835815 
	C547.017273,294.493256 548.073120,295.127167 548.084473,295.779266 
	C548.204895,302.681580 548.159058,309.586761 548.159058,316.740662 
	C545.673584,316.740662 543.613586,316.740662 541.274414,316.740662 
	C541.274414,309.275299 541.274414,301.908508 541.274414,294.135010 
	C542.668579,294.031036 544.078186,293.925903 545.967041,293.835815 
z"/>
<path fill="#F5F5F6" opacity="1.000000" stroke="none" 
	d="
M548.267944,288.156250 
	C545.783447,291.274994 543.049316,291.379333 541.269409,288.417175 
	C540.553040,287.225037 541.628418,284.546173 542.582092,282.961456 
	C542.966858,282.322174 545.863892,282.220215 546.464722,282.897095 
	C547.570312,284.142517 547.822693,286.145355 548.267944,288.156250 
z"/>
<path fill="#F5F5F6" opacity="1.000000" stroke="none" 
	d="
M419.605499,290.122711 
	C418.702362,288.049011 417.659973,286.041595 417.845947,284.155243 
	C417.918304,283.421356 421.203033,282.077698 422.232330,282.593292 
	C423.595215,283.275970 425.312927,286.209656 424.866150,286.932556 
	C423.921326,288.461487 421.671631,289.184052 419.605499,290.122711 
z"/>
<path fill="#F5F5F6" opacity="1.000000" stroke="none" 
	d="
M686.717896,288.922729 
	C686.736877,286.826782 686.599243,284.796509 687.433044,283.311676 
	C687.863525,282.545044 690.866211,282.122314 691.239258,282.627686 
	C692.416443,284.222137 693.973694,286.742981 693.430054,288.151062 
	C692.276672,291.138275 689.535522,291.229919 686.717896,288.922729 
z"/>
<path fill="transparent" opacity="1.000000" stroke="none" 
	d="
M526.083496,228.305099 
	C516.868347,228.365067 508.090424,228.365067 498.952087,228.365067 
	C498.952087,205.399979 498.952087,182.508865 498.952087,158.408188 
	C509.910156,159.090729 521.005432,158.646912 531.617004,160.701370 
	C548.725708,164.013733 558.134155,177.661118 557.398071,195.368744 
	C556.692383,212.345963 545.239563,225.289307 528.505676,228.013412 
	C527.848816,228.120331 527.182556,228.169205 526.083496,228.305099 
z"/>
<path fill="transparent" opacity="1.000000" stroke="none" 
	d="
M431.831848,159.851227 
	C450.074982,166.652481 458.905334,181.711365 456.000732,200.493500 
	C453.477539,216.809280 439.444672,228.771362 421.637054,229.786240 
	C404.458008,230.765305 389.373840,220.109375 384.718048,203.705505 
	C377.438049,178.055573 399.154327,153.996353 425.616760,158.419769 
	C427.577362,158.747498 429.499451,159.305389 431.831848,159.851227 
z"/>
<path fill="transparent" opacity="1.000000" stroke="none" 
	d="
M711.377197,227.662476 
	C689.174255,233.893219 669.161560,223.882782 663.520630,204.057068 
	C658.791809,187.437103 665.951599,170.074478 680.749390,162.276993 
	C696.153259,154.160156 716.423157,157.868256 727.236633,170.781158 
	C737.735107,183.317886 738.401184,203.185776 727.632446,215.995499 
	C723.548645,220.853180 717.113708,223.734344 711.377197,227.662476 
z"/>
<path fill="transparent" opacity="1.000000" stroke="none" 
	d="
M448.271667,309.920013 
	C445.970093,310.666077 443.711792,311.730469 441.917358,311.206482 
	C440.894714,310.907806 440.525024,308.043701 440.065399,306.281555 
	C439.824371,305.357574 440.126495,304.305756 440.004059,303.334290 
	C439.656403,300.575928 440.793182,298.294678 443.495148,298.661255 
	C445.489716,298.931824 448.118439,300.680359 448.854309,302.442749 
	C449.682281,304.425781 448.702576,307.163544 448.271667,309.920013 
z"/>
<path fill="transparent" opacity="1.000000" stroke="none" 
	d="
M823.591064,311.210236 
	C821.672668,311.486176 819.981201,311.447388 818.289673,311.408600 
	C819.639893,309.438263 820.990051,307.467926 822.340210,305.497589 
	C822.832825,305.770569 823.325378,306.043549 823.817993,306.316528 
	C823.817993,307.842865 823.817993,309.369171 823.591064,311.210236 
z"/>
<path fill="transparent" opacity="1.000000" stroke="none" 
	d="
M741.441833,302.300598 
	C738.488220,299.612549 741.266846,298.671387 742.727478,298.230988 
	C745.536926,297.383881 747.882629,298.199432 748.330994,302.351227 
	C746.038574,302.351227 743.960876,302.351227 741.441833,302.300598 
z"/>
<path fill="transparent" opacity="1.000000" stroke="none" 
	d="
M563.282471,312.008392 
	C561.650757,307.450745 565.365295,307.507507 567.605774,306.119568 
	C569.228760,311.608185 568.583496,312.525146 563.282471,312.008392 
z"/>
<path fill="transparent" opacity="1.000000" stroke="none" 
	d="
M498.122742,297.863831 
	C500.182343,298.764038 501.843445,299.696045 503.504547,300.628052 
	C503.332947,301.098724 503.161346,301.569366 502.989746,302.040039 
	C500.090790,302.040039 497.191864,302.040039 494.292908,302.040039 
	C494.075592,301.725861 493.858307,301.411682 493.640991,301.097504 
	C495.002075,300.030182 496.363190,298.962891 498.122742,297.863831 
z"/>
<path fill="transparent" opacity="1.000000" stroke="none" 
	d="
M612.747803,297.889709 
	C614.365295,298.998383 615.607971,300.047821 616.850586,301.097260 
	C616.692749,301.432587 616.534912,301.767944 616.377136,302.103271 
	C613.579834,302.103271 610.782471,302.103271 607.985168,302.103271 
	C607.707458,301.689148 607.429749,301.275024 607.151978,300.860901 
	C608.892273,299.850739 610.632568,298.840607 612.747803,297.889709 
z"/>
</svg>